<?xml version="1.0" encoding="iso-8859-1"?>
<!-- Generator: Adobe Illustrator 19.0.0, SVG Export Plug-In . SVG Version: 6.00 Build 0)  -->
<svg version="1.1" id="Layer_1" xmlns="http://www.w3.org/2000/svg" xmlns:xlink="http://www.w3.org/1999/xlink" x="0px" y="0px"
	 viewBox="0 0 502.613 502.613" style="enable-background:new 0 0 502.613 502.613;" xml:space="preserve">
<g transform="translate(9 1)">
	<path style="fill:#FF7474;" d="M280.28,138.946L280.28,138.946l-5.973,128l0,0c-9.387-5.973-19.627-8.533-31.573-8.533
		c-11.947,0-22.187,3.413-31.573,8.533l0,0L207.746,139.8v-0.853H280.28z M421.933,138.946L387.8,463.213
		c-2.56,19.627-15.36,34.133-34.133,34.133h-29.013l34.133-358.4h45.227H421.933z M128.386,139.8l32.427,357.547H131.8
		c-18.773,0-31.573-14.507-34.133-34.133L63.533,138.946h23.04h41.813V139.8z M214.573,371.053c8.533,4.267,17.92,6.827,28.16,6.827
		s19.627-2.56,28.16-6.827l0,0l-5.12,126.293h-47.787L214.573,371.053L214.573,371.053z"/>
	<path style="fill:#ECF4F7;" d="M270.893,371.053L270.893,371.053c18.773-10.24,31.573-30.72,31.573-52.907
		c0-21.333-11.093-40.107-28.16-51.2l0,0L280.28,139.8v-0.853h78.507l-34.133,358.4h-58.027L270.893,371.053z M214.573,371.053
		l4.267,126.293h-58.027L128.387,139.8v-0.853h3.413h75.947v0.853l3.413,127.147l0,0c-17.067,10.24-28.16,29.013-28.16,51.2
		C183,341.186,195.8,360.813,214.573,371.053L214.573,371.053z"/>
	<g>
		<path style="fill:#F2EDDA;" d="M242.733,258.413c33.28,0,59.733,26.453,59.733,59.733s-26.453,59.733-59.733,59.733
			S183,351.426,183,318.146S209.453,258.413,242.733,258.413"/>
		<path style="fill:#F2EDDA;" d="M131.8,138.946H86.573v-0.853c-22.187-9.387-23.04-33.28-23.04-33.28
			c0-14.507,11.093-25.6,25.6-25.6c3.413,0,5.973,0.853,8.533,1.707c0-0.853,0-0.853,0-1.707c0-14.507,11.093-25.6,25.6-25.6
			c3.413,0,6.827,0.853,10.24,1.707c-0.853-3.413-1.707-6.827-1.707-10.24c0-23.893,18.773-42.667,42.667-42.667
			c17.92,0,33.28,11.093,39.253,27.307c4.267-5.973,11.947-10.24,20.48-10.24c10.24,0,19.627,6.827,23.893,15.36
			C268.333,15.213,287.96,2.413,311,2.413c33.28,0,59.733,26.453,59.733,59.733V63c2.56-0.853,5.973-0.853,8.533-0.853
			c23.893,0,42.667,18.773,42.667,42.667c0,0-0.853,21.333-17.92,34.133l0,0H131.8z"/>
	</g>
</g>
<path style="fill:#51565F;" d="M362.666,502.613H140.8c-19.627,0-34.987-15.36-38.4-37.547L68.266,140.8c0-0.853,0-2.56,0.853-3.413
	c0.853-0.853,1.707-1.707,3.413-1.707H140.8c11.947,0,21.333-9.387,21.333-21.333s-9.387-21.333-21.333-21.333
	c-2.56,0-4.267-1.707-4.267-4.267c0-2.56,1.707-4.267,4.267-4.267c16.213,0,29.867,13.653,29.867,29.867
	s-13.653,29.867-29.867,29.867H77.653l33.28,319.147c2.56,18.773,14.507,30.72,29.867,30.72h221.867
	c15.36,0,27.307-11.947,29.867-30.72l33.28-319.147H192c-2.56,0-4.267-1.707-4.267-4.267c0-2.56,1.707-4.267,4.267-4.267h238.933
	c0.853,0,2.56,0.853,3.413,1.707c0.853,0.853,0.853,1.707,0.853,3.413l-34.133,324.267
	C397.653,487.253,382.293,502.613,362.666,502.613z M337.066,468.48L337.066,468.48c-2.56,0-4.267-1.707-4.267-4.267l0,0
	l25.6-290.133c0-2.56,2.56-4.267,4.267-4.267c2.56,0,4.267,1.707,4.267,4.267l0,0l-25.6,290.133
	C341.333,466.773,339.626,468.48,337.066,468.48z M166.4,468.48c-2.56,0-4.267-1.707-4.267-4.267l-25.6-290.133l0,0
	c0-2.56,1.707-4.267,4.267-4.267c2.56,0,4.267,1.707,4.267,4.267l25.6,290.133l0,0C170.666,466.773,168.96,468.48,166.4,468.48
	L166.4,468.48z M226.133,468.48c-2.56,0-4.267-1.707-4.267-4.267l-2.56-90.453c-18.773-11.093-31.573-31.573-31.573-55.467
	c0-22.187,11.093-40.96,28.16-52.907l-2.56-92.16l0,0c0-2.56,1.707-4.267,4.267-4.267l0,0c2.56,0,4.267,1.707,4.267,4.267
	l2.56,87.04c17.067-7.68,38.4-7.68,55.467,0l2.56-87.04c0-2.56,2.56-4.267,4.267-4.267c2.56,0,4.267,1.707,4.267,4.267l0,0
	l-2.56,92.16c17.067,11.947,28.16,30.72,28.16,52.907c0,23.04-12.8,44.373-31.573,55.467l-2.56,90.453
	c0,2.56-1.707,4.267-4.267,4.267s-4.267-1.707-4.267-4.267l0,0l2.56-85.333c-14.507,5.973-33.28,5.973-47.787,0l2.56,85.333l0,0
	C230.4,466.773,228.693,468.48,226.133,468.48L226.133,468.48z M196.266,319.146c0,30.72,24.747,55.467,55.467,55.467
	s55.467-24.747,55.467-55.467s-24.747-55.467-55.467-55.467S196.266,288.426,196.266,319.146z M430.933,110.08
	c-2.56,0-4.267-1.707-4.267-4.267c0-21.333-17.067-38.4-38.4-38.4c-2.56,0-5.12,0-7.68,0.853c-0.853,0-2.56,0-3.413-0.853
	c-0.853-0.853-1.707-1.707-1.707-3.413v-0.853c0-30.72-24.747-55.467-55.467-55.467c-21.333,0-40.107,11.947-49.493,30.72
	c-0.853,1.707-2.56,2.56-4.267,2.56c-1.707,0-3.413-0.853-3.413-2.56c-3.413-7.68-11.093-12.8-19.627-12.8
	c-6.827,0-12.8,3.413-17.067,8.533c-0.853,0.853-2.56,1.707-4.267,1.707s-2.56-0.853-3.413-2.56
	c-5.973-14.507-19.627-24.747-35.84-24.747c-21.333,0-38.4,17.067-38.4,38.4c0,2.56,0,5.973,1.707,9.387
	c0,1.707,0,3.413-1.707,4.267c-0.853,0.853-2.56,1.707-4.267,0.853c-2.56-0.853-5.12-1.707-8.533-1.707
	c-11.947,0-21.333,9.387-21.333,21.333c0,0,0,0.853,0,1.707c0,1.707-0.853,2.56-1.707,3.413s-2.56,0.853-4.267,0.853
	c-2.56-0.853-5.12-1.707-6.827-1.707c-11.947,0-21.333,9.387-21.333,21.333c0,2.56-1.707,4.267-4.267,4.267
	c-2.56,0-4.267-1.707-4.267-4.267c0-17.92,16.213-32.427,34.133-29.867c1.707-14.507,14.507-25.6,29.867-25.6
	c1.707,0,3.413,0,4.267,0c0-1.707,0-3.413,0-4.267C135.68,21.333,157.013,0,182.613,0c17.067,0,32.427,9.387,40.96,23.893
	c5.12-4.267,11.947-6.827,18.773-6.827c9.387,0,17.92,4.267,23.893,11.093C278.187,10.24,297.813,0,319.147,0
	c34.133,0,61.44,26.453,64,59.733c1.707,0,2.56,0,4.267,0c25.6,0,46.933,21.333,46.933,46.933
	C435.2,108.373,433.493,110.08,430.933,110.08z M362.666,110.08c-2.56,0-4.267-1.707-4.267-4.267
	c0-11.947,9.387-21.333,21.333-21.333c2.56,0,4.267,1.707,4.267,4.267c0,2.56-1.707,4.267-4.267,4.267
	c-6.827,0-12.8,5.973-12.8,12.8C366.933,108.373,365.226,110.08,362.666,110.08z M294.4,110.08
	c-11.947,0-21.333-9.387-21.333-21.333c0-2.56,1.707-4.267,4.267-4.267s4.267,1.707,4.267,4.267c0,6.827,5.973,12.8,12.8,12.8
	c2.56,0,4.267,1.707,4.267,4.267S296.96,110.08,294.4,110.08z M209.066,101.546c-2.56,0-4.267-1.707-4.267-4.267
	c0-16.213,13.653-29.867,29.867-29.867c2.56,0,4.267,1.707,4.267,4.267c0,2.56-1.707,4.267-4.267,4.267
	c-11.947,0-21.333,9.387-21.333,21.333C213.333,99.84,211.626,101.546,209.066,101.546z M337.92,85.333c-0.853,0-2.56,0-3.413-0.853
	c-1.707-1.707-1.707-4.267,0-5.973c8.533-8.533,8.533-22.187,0-29.867c-8.533-8.533-22.187-8.533-29.867,0
	c-1.707,1.707-4.267,1.707-5.973,0c-1.707-1.707-1.707-4.267,0-5.973c11.947-11.947,30.72-11.947,42.667,0s11.947,30.72,0,41.813
	C340.48,85.333,338.773,85.333,337.92,85.333z M174.933,58.88c-2.56,0-4.267-1.707-4.267-4.267c0-11.947,9.387-21.333,21.333-21.333
	c2.56,0,4.267,1.707,4.267,4.267s-1.707,4.267-4.267,4.267c-6.827,0-12.8,5.973-12.8,12.8C179.2,57.173,177.493,58.88,174.933,58.88
	z"/>
<g>
</g>
<g>
</g>
<g>
</g>
<g>
</g>
<g>
</g>
<g>
</g>
<g>
</g>
<g>
</g>
<g>
</g>
<g>
</g>
<g>
</g>
<g>
</g>
<g>
</g>
<g>
</g>
<g>
</g>
</svg>
